<svg id="Layer_1" data-name="Layer 1" xmlns="http://www.w3.org/2000/svg" xmlns:xlink="http://www.w3.org/1999/xlink" viewBox="0 0 200 102.54"><defs><style>.cls-1{fill:none;}.cls-2{clip-path:url(#clip-path);}.cls-3{fill:#fff;}.cls-4{fill:#b99f5b;}</style><clipPath id="clip-path" transform="translate(-138.67 -224.55)"><rect class="cls-1" x="138.67" y="224.55" width="200" height="102.54"/></clipPath></defs><title>logosvg</title><g class="cls-2"><path class="cls-3" d="M156.6,296.91v27.32h-1.26V304c0-1.49,0-2.93.08-4.3h0l-1.56,3.87-5.56,13.54H147l-5.52-13.54c-.55-1.37-1.14-2.7-1.57-3.87h0c0,1.37,0,2.81,0,4.3v20.2h-1.25V296.91H140l6.11,14.75c.51,1.26,1,2.78,1.52,4h0c.43-1.18,1-2.7,1.53-4l6.07-14.75Z" transform="translate(-138.67 -224.55)"/><path class="cls-3" d="M184.16,315.66l-2.9-11.16c-.55-2.07-1.06-4.19-1.53-5.95-.47,1.76-1,3.88-1.52,5.95l-2.9,11.16Zm.31,1.13H175l-2,7.52h-1.33l7.32-27.4h1.41l7.32,27.4h-1.33Z" transform="translate(-138.67 -224.55)"/><path class="cls-3" d="M199.19,325.87c3,0,4.39-1.84,4.39-5.09V296.91h1.25v23.87c0,3.92-1.84,6.3-5.64,6.3Z" transform="translate(-138.67 -224.55)"/></g><polygon class="cls-3" points="96.18 98.58 96.18 99.76 83.93 99.76 83.93 72.36 96.06 72.36 96.06 73.53 85.18 73.53 85.18 85.24 95.24 85.24 95.24 86.41 85.18 86.41 85.18 98.58 96.18 98.58"/><g class="cls-2"><path class="cls-3" d="M249.42,317.93h1.25c.31,3.52,2.27,5.63,5.56,5.63a5.12,5.12,0,0,0,5.44-5.44c0-7.2-12-7.51-12-15.38a6.18,6.18,0,0,1,6.5-6.3c3.8,0,6.26,2.66,6.54,6.77h-1.26c-.31-3.6-2.23-5.56-5.24-5.56a5,5,0,0,0-5.29,5.09c0,7,12.06,7.28,12.06,15.38a6.43,6.43,0,0,1-6.73,6.66c-4.11,0-6.58-2.82-6.81-6.85" transform="translate(-138.67 -224.55)"/></g><polygon class="cls-3" points="151.89 73.53 145.63 73.53 145.63 99.76 144.38 99.76 144.38 73.53 138.23 73.53 138.23 72.36 151.89 72.36 151.89 73.53"/><rect class="cls-3" x="167.39" y="72.36" width="1.25" height="27.4"/><g class="cls-2"><path class="cls-3" d="M324.42,316.71V304.5c0-5.32,2.74-8.06,6.89-8.06,4.35,0,6.85,2.54,7.2,7.47h-1.25c-.35-4.26-2.35-6.3-5.95-6.3-3.4,0-5.63,2.23-5.63,6.89v12.21c0,4.66,2.23,6.89,5.67,6.89,3.68,0,5.75-2,6.11-6.3h1.21c-.31,4.93-2.9,7.48-7.32,7.48-4.15,0-6.93-2.74-6.93-8.07" transform="translate(-138.67 -224.55)"/></g><polygon class="cls-4" points="65.8 0 65.8 4.58 99.41 31.63 133.4 4.59 133.4 0.03 99.42 27.06 65.8 0"/><polygon class="cls-4" points="54.21 13.12 99.32 49.42 144.99 13.09 144.99 32.45 148.47 32.45 148.47 5.87 99.34 44.96 50.73 5.85 50.73 32.45 54.21 32.45 54.21 13.12"/></svg>